# xmcd
#
# Track frame offsets: 
#        150
#        13617
#        26513
#        39750
#        52557
#        64685
#        77873
#        91272
#        102973
#        115433
#        129520
#        144003
#        156723
#        170419
#        183744
#        197891
#        211865
#        226154
#        240383
#        260300
#
# Disc length: 3666 seconds
#
# Revision: 2
# Processed by: cddbd v1.5.2PL0 Copyright (c) Steve Scherf et al.
# Submitted via: ExactAudioCopy v1.0b4
#
DISCID=fe0e5014
DTITLE=Lester Young - The Ultimate Jazz Archive Set 20, Menu 2 Lester 
DTITLE=Young
DYEAR=1936
DGENRE=Swing
TTITLE0=Jones-Smith Incorporated - Shoe Shine Boy
TTITLE1=Kansas City Six With Lester Young - I Want A Little Girl
TTITLE2=Kansas City Six With Lester Young - Countless Blues
TTITLE3=Glenn Hardman And His Hammond Five - China Boy
TTITLE4=Glenn Hardman And His Hammond Five - Exactly Like You
TTITLE5=Glenn Hardman And His Hammond Five - On The Sunny Side Of The 
TTITLE5=Street
TTITLE6=Glenn Hardman And His Hammond Five - Upright Organ Blues
TTITLE7=Glenn Hardman And His Hammond Five - Who?
TTITLE8=Glenn Hardman And His Hammond Five - Jazz Me Blues
TTITLE9=Count Basie Kansas City Seven - Dickie's Heaven
TTITLE10=Count Basie Kansas City Seven - Lester Leaps In
TTITLE11=Count Basie And His Orchestra - What's Your Number
TTITLE12=Count Basie And His Orchestra - Five O'Clock Whistle
TTITLE13=Count Basie And His Orchestra - Broadway
TTITLE14=Lester Young Quartet - Afternoon On A Basie-Ite
TTITLE15=Lester Young Quartet - Sometimes I'm Happy
TTITLE16=Lester Young Quartet - Just You, Just Me
TTITLE17=Lester Young Quartet - I Never Knew
TTITLE18=Kansas City Six - Lester Leaps In
TTITLE19=Kansas City Six - I Got Rhythm
EXTD=YEAR: 2005
EXTT0=
EXTT1=
EXTT2=
EXTT3=
EXTT4=
EXTT5=
EXTT6=
EXTT7=
EXTT8=
EXTT9=
EXTT10=
EXTT11=
EXTT12=
EXTT13=
EXTT14=
EXTT15=
EXTT16=
EXTT17=
EXTT18=
EXTT19=
PLAYORDER=
